<?xml version="1.0" encoding="UTF-8"?>
<svg id="FM_color" xmlns="http://www.w3.org/2000/svg" viewBox="0 0 84.6080005015 114.6919429094">
  <defs>
    <style>
      .cls-1 {
        fill: #0082fc;
      }

      .cls-2 {
        fill: #fff;
      }
    </style>
  </defs>
  <path class="cls-1" d="M79.1282150351,109.9344834582h.829490201c.3268168103,0,.5856211451-.077971965.7681100019-.2339162905.1907792023-.1625797661.2870041665-.3882013603.2870041665-.6718870153,0-.6022097467-.3749324566-.9323466505-1.0551141683-.9323466505h-.829490201v1.8381499563ZM80.8402852907,112.2918948135l-1.0600883756-1.8729889862h-.65198188v1.8729889862h-.6154790459v-4.6799836808h1.582664924c.2223015006,0,.4313384485.0364980878.6221176507.1078338211.1874630641.0713365243.3517068323.1708752535.4860800427.2952984673.1343795389.1260824694.2422109868.2753905632.321842603.4462654212.076315478.1692159978.1161281219.3550217839.1161281219.5540996378,0,.3135471156-.0895800308.5823022382-.2737269567.8211951091-.1874693926.2405521266-.4213837054.4064504042-.720000684.5043302732l-.1990758763.0647002926,1.0932687431,1.8862606585h-.701749267ZM79.8813960866,106.1221471241c-.5258990151,0-1.0252499391.0995387292-1.4831301501.2952984673-.456222142.1957597381-.8610124994.4711503013-1.2044226576.8178773888-.3417457607.3483859477-.6138209768.761471397-.8062645766,1.2293039779-.1924372714.4678325809-.2903203046.9804575505-.2903203046,1.5246028407,0,.5441456858.0978830333,1.0600887711.2903203046,1.5312390724.1924435999.4728093592.4645188159.8858955995.8079226457,1.2293043735.3417520892.3434089717.7465424466.6171406747,1.2011065195.8178772899.4578738825.1990776561.957231135.3002754433,1.4847882192.3002754433.5275507557,0,1.0269080082-.1011977871,1.4847818907-.3002754433.4545640729-.2007366152.8593544303-.4744683182,1.2011065195-.8178772899.3434038298-.3434087739.6154790459-.7564950143.8079226457-1.2293043735.1924372714-.472809557.2903203046-.9870933866.2903203046-1.5312390724,0-.5441452902-.0978830333-1.0567702598-.2903203046-1.5246028407-.1924435999-.4678325809-.4645188159-.8809180302-.8062645766-1.2293039779-.3434101583-.3467270875-.7482005157-.6221176507-1.2044226576-.8178773888-.457880211-.1957597381-.957231135-.2952984673-1.4831238216-.2952984673M79.8813960866,114.4402742146c-.6121692362,0-1.1928098455-.1194465838-1.7236830678-.3533628248-.5325312915-.2355752001-1.0070048505-.5574174076-1.4068146721-.9572316789-.398158081-.3998141725-.7183426149-.8742825896-.9489407896-1.4134511016-.228933777-.5391687098-.3467262965-1.1198116922-.3467262965-1.7269988105,0-.6071867227.1177925195-1.1845119849.3467262965-1.7187037186.2305981746-.5358498028.5507827085-1.0119774756.9505988587-1.415109764.3981517525-.4031322883.8709672424-.7249741003,1.405156603-.9555722749.5308732224-.2322578258,1.1115138316-.3483859477,1.7236830678-.3483859477.6138209768,0,1.1977777242.117786982,1.7386056897.3483859477.5408279654.2322570348,1.0169595936.5524399866,1.4167694152.9555722749.3998161501.4031322883.7216587531.8792599611.9555730659,1.415109764.2339206413.5341917337.3517068323,1.1131758561.3517068323,1.7187037186,0,.6071871182-.117786191,1.1878301007-.3517068323,1.7253397526-.2339143128.5408275699-.5557569158,1.015295987-.9555730659,1.4151101595-.3998098216.3981553123-.8759414497.7216564788-1.4184274843.9572316789-.5391698963.233916241-1.1247847129.3533628248-1.7369476206.3533628248"/>
  <ellipse class="cls-2" cx="41.8618532025" cy="57.9566437845" rx="38.0958520336" ry="51.9778396737"/>
  <path class="cls-1" d="M42.308974458,114.6919429094c25.0423111932,0,42.2990260434-11.8948864446,42.2990260434-57.3459714547S67.3512856512,0,42.308974458,0C17.2683276625,0,0,11.8948864446,0,57.3459714547s17.2683276625,57.3459714547,42.308974458,57.3459714547M36.8177502134,57.3459714547l-20.5000182454-20.5547661681,5.9408077816-5.9408109459,16.3343189876,16.3359802209V8.0344459346l29.699064701,29.7007196058-19.6124639834,19.6108059143,19.6124639834,19.6124639834-29.699064701,29.6990678652v-39.1519381198l-16.3343189876,16.3359770566-5.9408077816-5.9408077816,20.5000182454-20.5547630038ZM46.9408506009,86.3714898846l9.4827281554-9.4827344839-9.4760927147-9.476095879-.0066354406,18.9588303628ZM46.9408506009,28.3204466963l9.4827281554,9.4827376481-9.4760927147,9.4760927147-.0066354406-18.9588303628Z"/>
</svg>